<svg class="frappe-chart chart chart-container" width="328" height="300" xmlns="http://www.w3.org/2000/svg" xmlns:xlink="http://www.w3.org/1999/xlink"><style>.chart-container{position:relative;font-family:-apple-system,BlinkMacSystemFont,'Segoe UI','Roboto','Oxygen','Ubuntu','Cantarell','Fira Sans','Droid Sans','Helvetica Neue',sans-serif}.chart-container .axis,.chart-container .chart-label{fill:#555b51}.chart-container .axis line,.chart-container .chart-label line{stroke:#dadada}.chart-container .dataset-units circle{stroke:#fff;stroke-width:2}.chart-container .dataset-units path{fill:none;stroke-opacity:1;stroke-width:2px}.chart-container .dataset-path{stroke-width:2px}.chart-container .path-group path{fill:none;stroke-opacity:1;stroke-width:2px}.chart-container line.dashed{stroke-dasharray:5,3}.chart-container .axis-line .specific-value{text-anchor:start}.chart-container .axis-line .y-line{text-anchor:end}.chart-container .axis-line .x-line{text-anchor:middle}.chart-container .legend-dataset-text{fill:#6c7680;font-weight:600}.graph-svg-tip{position:absolute;z-index:99999;padding:10px;font-size:12px;color:#959da5;text-align:center;background:rgba(0,0,0,.8);border-radius:3px}.graph-svg-tip ul{padding-left:0;display:flex}.graph-svg-tip ol{padding-left:0;display:flex}.graph-svg-tip ul.data-point-list li{min-width:90px;flex:1;font-weight:600}.graph-svg-tip strong{color:#dfe2e5;font-weight:600}.graph-svg-tip .svg-pointer{position:absolute;height:5px;margin:0 0 0 -5px;content:' ';border:5px solid transparent;border-top-color:rgba(0,0,0,.8)}.graph-svg-tip.comparison{padding:0;text-align:left;pointer-events:none}.graph-svg-tip.comparison .title{display:block;padding:10px;margin:0;font-weight:600;line-height:1;pointer-events:none}.graph-svg-tip.comparison ul{margin:0;white-space:nowrap;list-style:none}.graph-svg-tip.comparison li{display:inline-block;padding:5px 10px}</style><defs></defs><text class="title" x="20" y="10" dy="12px" font-size="12px" fill="#666666" text-anchor="start">My Awesome Chart</text><g class="pie-chart chart-draw-area" transform="translate(50, 50)"><g class="pie-slices" transform=""><path class="pie-path" d="M124 85
		L124.00000000000001 0
		A 85 85 0 0 0
		60.19285405351843 28.842648511843073 z" style="stroke: none; fill: rgb(181, 84, 255);"></path><path class="pie-path" d="M124 85
		L60.19285405351843 28.842648511843073
		A 85 85 0 0 0
		59.82743275673596 140.73940808269097 z" style="stroke: none; fill: rgb(255, 163, 239);"></path><path class="pie-path" d="M124 85
		L59.82743275673596 140.73940808269097
		A 85 85 0 0 0
		73.67962551316113 153.50445176413206 z" style="stroke: none; fill: rgb(124, 214, 253);"></path><path class="pie-path" d="M124 85
		L73.67962551316113 153.50445176413206
		A 85 85 0 0 0
		109.08805903330509 168.68174243289755 z" style="stroke: none; fill: rgb(124, 214, 253);"></path><path class="pie-path" d="M124 85
		L109.08805903330509 168.68174243289755
		A 85 85 0 0 0
		191.67370279065375 136.43218788465313 z" style="stroke: none; fill: rgb(94, 100, 255);"></path><path class="pie-path" d="M124 85
		L191.67370279065375 136.43218788465313
		A 85 85 0 0 0
		193.95362860096077 36.71449652785173 z" style="stroke: none; fill: rgb(116, 62, 226);"></path><path class="pie-path" d="M124 85
		L193.95362860096077 36.71449652785173
		A 85 85 0 0 0
		172.9685155957659 15.522777255079973 z" style="stroke: none; fill: rgb(255, 88, 88);"></path><path class="pie-path" d="M124 85
		L172.9685155957659 15.522777255079973
		A 85 85 0 0 0
		124.00000000000003 0 z" style="stroke: none; fill: rgb(255, 160, 10);"></path></g></g><g class="chart-legend" transform="translate(50, 260)"><g transform="translate(5, 0)"><circle class="legend-dot" cx="0" cy="0" r="5" fill="#b554ff"></circle><text class="legend-dataset-text" x="0" y="0" dx="10px" dy="3.3333333333333335px" font-size="12px" text-anchor="start" fill="#555b51">12am-3am: 65</text></g><g transform="translate(115, 0)"><circle class="legend-dot" cx="0" cy="0" r="5" fill="#ffa3ef"></circle><text class="legend-dataset-text" x="0" y="0" dx="10px" dy="3.3333333333333335px" font-size="12px" text-anchor="start" fill="#555b51">3am-6am: 110</text></g><g transform="translate(5, 20)"><circle class="legend-dot" cx="0" cy="0" r="5" fill="#7cd6fd"></circle><text class="legend-dataset-text" x="0" y="0" dx="10px" dy="3.3333333333333335px" font-size="12px" text-anchor="start" fill="#555b51">6am-9am: 17</text></g><g transform="translate(115, 20)"><circle class="legend-dot" cx="0" cy="0" r="5" fill="#7cd6fd"></circle><text class="legend-dataset-text" x="0" y="0" dx="10px" dy="3.3333333333333335px" font-size="12px" text-anchor="start" fill="#555b51">9am-12pm: 35</text></g><g transform="translate(5, 40)"><circle class="legend-dot" cx="0" cy="0" r="5" fill="#5e64ff"></circle><text class="legend-dataset-text" x="0" y="0" dx="10px" dy="3.3333333333333335px" font-size="12px" text-anchor="start" fill="#555b51">12pm-3pm: 84</text></g><g transform="translate(115, 40)"><circle class="legend-dot" cx="0" cy="0" r="5" fill="#743ee2"></circle><text class="legend-dataset-text" x="0" y="0" dx="10px" dy="3.3333333333333335px" font-size="12px" text-anchor="start" fill="#555b51">3pm-6pm: 96</text></g><g transform="translate(5, 60)"><circle class="legend-dot" cx="0" cy="0" r="5" fill="#ff5858"></circle><text class="legend-dataset-text" x="0" y="0" dx="10px" dy="3.3333333333333335px" font-size="12px" text-anchor="start" fill="#555b51">6pm-9pm: 27</text></g><g transform="translate(115, 60)"><circle class="legend-dot" cx="0" cy="0" r="5" fill="#ffa00a"></circle><text class="legend-dataset-text" x="0" y="0" dx="10px" dy="3.3333333333333335px" font-size="12px" text-anchor="start" fill="#555b51">9pm-12am: 47</text></g></g></svg>