<?xml version="1.0" encoding="UTF-8"?>
<svg class="frappe-chart chart chart-container" viewBox="0 0 328 328" xmlns="http://www.w3.org/2000/svg">
<style>.chart-container{position:relative;font-family:-apple-system,BlinkMacSystemFont,'Segoe UI','Roboto','Oxygen','Ubuntu','Cantarell','Fira Sans','Droid Sans','Helvetica Neue',sans-serif}.chart-container .axis,.chart-container .chart-label{fill:#555b51}.chart-container .axis line,.chart-container .chart-label line{stroke:#dadada}.chart-container .dataset-units circle{stroke:#fff;stroke-width:2}.chart-container .dataset-units path{fill:none;stroke-opacity:1;stroke-width:2px}.chart-container .dataset-path{stroke-width:2px}.chart-container .path-group path{fill:none;stroke-opacity:1;stroke-width:2px}.chart-container line.dashed{stroke-dasharray:5,3}.chart-container .axis-line .specific-value{text-anchor:start}.chart-container .axis-line .y-line{text-anchor:end}.chart-container .axis-line .x-line{text-anchor:middle}.chart-container .legend-dataset-text{fill:#6c7680;font-weight:600}.graph-svg-tip{position:absolute;z-index:99999;padding:10px;font-size:12px;color:#959da5;text-align:center;background:rgba(0,0,0,.8);border-radius:3px}.graph-svg-tip ul{padding-left:0;display:flex}.graph-svg-tip ol{padding-left:0;display:flex}.graph-svg-tip ul.data-point-list li{min-width:90px;flex:1;font-weight:600}.graph-svg-tip strong{color:#dfe2e5;font-weight:600}.graph-svg-tip .svg-pointer{position:absolute;height:5px;margin:0 0 0 -5px;content:' ';border:5px solid transparent;border-top-color:rgba(0,0,0,.8)}.graph-svg-tip.comparison{padding:0;text-align:left;pointer-events:none}.graph-svg-tip.comparison .title{display:block;padding:10px;margin:0;font-weight:600;line-height:1;pointer-events:none}.graph-svg-tip.comparison ul{margin:0;white-space:nowrap;list-style:none}.graph-svg-tip.comparison li{display:inline-block;padding:5px 10px}</style>
<text class="title" x="20" y="10" dy="12px" fill="#666666" font-size="12px">My Awesome Chart</text>
<g class="pie-chart chart-draw-area" transform="translate(50 50)">
<g class="pie-slices" transform="">
<path class="pie-path" d="m124 85 1e-14 -85a85 85 0 0 0-63.807 28.843z" fill="#b554ff"/>
<path class="pie-path" d="m124 85-63.807-56.157a85 85 0 0 0-0.36542 111.9z" fill="#ffa3ef"/>
<path class="pie-path" d="m124 85-64.173 55.739a85 85 0 0 0 13.852 12.765z" fill="#7cd6fd"/>
<path class="pie-path" d="m124 85-50.32 68.504a85 85 0 0 0 35.408 15.177z" fill="#7cd6fd"/>
<path class="pie-path" d="m124 85-14.912 83.682a85 85 0 0 0 82.586-32.25z" fill="#5e64ff"/>
<path class="pie-path" d="m124 85 67.674 51.432a85 85 0 0 0 2.2799-99.718z" fill="#743ee2"/>
<path class="pie-path" d="m124 85 69.954-48.286a85 85 0 0 0-20.985-21.192z" fill="#ff5858"/>
<path class="pie-path" d="m124 85 48.969-69.477a85 85 0 0 0-48.969-15.523z" fill="#ffa00a"/>
</g>
</g>
<g class="chart-legend" transform="translate(50 260)">
<g transform="translate(5)">
<circle class="legend-dot" r="5" fill="#b554ff"/>
<text class="legend-dataset-text" dx="10px" dy="3.3333333333333335px" fill="#555b51" font-size="12px">12am-3am: 65</text>
</g>
<g transform="translate(115)">
<circle class="legend-dot" r="5" fill="#ffa3ef"/>
<text class="legend-dataset-text" dx="10px" dy="3.3333333333333335px" fill="#555b51" font-size="12px">3am-6am: 110</text>
</g>
<g transform="translate(5 20)">
<circle class="legend-dot" r="5" fill="#7cd6fd"/>
<text class="legend-dataset-text" dx="10px" dy="3.3333333333333335px" fill="#555b51" font-size="12px">6am-9am: 17</text>
</g>
<g transform="translate(115 20)">
<circle class="legend-dot" r="5" fill="#7cd6fd"/>
<text class="legend-dataset-text" dx="10px" dy="3.3333333333333335px" fill="#555b51" font-size="12px">9am-12pm: 35</text>
</g>
<g transform="translate(5 40)">
<circle class="legend-dot" r="5" fill="#5e64ff"/>
<text class="legend-dataset-text" dx="10px" dy="3.3333333333333335px" fill="#555b51" font-size="12px">12pm-3pm: 84</text>
</g>
<g transform="translate(115 40)">
<circle class="legend-dot" r="5" fill="#743ee2"/>
<text class="legend-dataset-text" dx="10px" dy="3.3333333333333335px" fill="#555b51" font-size="12px">3pm-6pm: 96</text>
</g>
<g transform="translate(5 60)">
<circle class="legend-dot" r="5" fill="#ff5858"/>
<text class="legend-dataset-text" dx="10px" dy="3.3333333333333335px" fill="#555b51" font-size="12px">6pm-9pm: 27</text>
</g>
<g transform="translate(115 60)">
<circle class="legend-dot" r="5" fill="#ffa00a"/>
<text class="legend-dataset-text" dx="10px" dy="3.3333333333333335px" fill="#555b51" font-size="12px">9pm-12am: 47</text>
</g>
</g>
</svg>
