<svg xmlns="http://www.w3.org/2000/svg" class="frappe-chart chart chart-container" viewBox="0 0 380 300"><style>.chart-container{position:relative;font-family:-apple-system,BlinkMacSystemFont,&apos;Segoe UI&apos;,&apos;Roboto&apos;,&apos;Oxygen&apos;,&apos;Ubuntu&apos;,&apos;Cantarell&apos;,&apos;Fira Sans&apos;,&apos;Droid Sans&apos;,&apos;Helvetica Neue&apos;,sans-serif}.chart-container .legend-dataset-text{fill:#6c7680;font-weight:600}</style><text x="20" y="10" fill="#666" class="title" dy="12" font-size="12">My Awesome Chart</text><g class="pie-chart chart-draw-area"><g class="pie-slices"><path fill="#b554ff" d="m124 85 1e-14 -85a85 85 0 0 0-63.807 28.843z" class="pie-path" transform="translate(50 50)"/><path fill="#ffa3ef" d="m124 85-63.807-56.157a85 85 0 0 0-0.36542 111.9z" class="pie-path" transform="translate(50 50)"/><path fill="#7cd6fd" d="m124 85-64.173 55.739a85 85 0 0 0 13.852 12.765z" class="pie-path" transform="translate(50 50)"/><path fill="#7cd6fd" d="m124 85-50.32 68.504a85 85 0 0 0 35.408 15.177z" class="pie-path" transform="translate(50 50)"/><path fill="#5e64ff" d="m124 85-14.912 83.682a85 85 0 0 0 82.586-32.25z" class="pie-path" transform="translate(50 50)"/><path fill="#743ee2" d="m124 85 67.674 51.432a85 85 0 0 0 2.2799-99.718z" class="pie-path" transform="translate(50 50)"/><path fill="#ff5858" d="m124 85 69.954-48.286a85 85 0 0 0-20.985-21.192z" class="pie-path" transform="translate(50 50)"/><path fill="#ffa00a" d="m124 85 48.969-69.477a85 85 0 0 0-48.969-15.523z" class="pie-path" transform="translate(50 50)"/></g></g><g class="chart-legend"><g transform="translate(50 260) translate(5)"><circle r="5" fill="#b554ff" class="legend-dot"/><text fill="#555b51" class="legend-dataset-text" dx="10" dy="3.333" font-size="12">12am-3am: 65</text></g><g transform="translate(50 260) translate(115)"><circle r="5" fill="#ffa3ef" class="legend-dot"/><text fill="#555b51" class="legend-dataset-text" dx="10" dy="3.333" font-size="12">3am-6am: 110</text></g><g transform="translate(50 260) translate(5 20)"><circle r="5" fill="#7cd6fd" class="legend-dot"/><text fill="#555b51" class="legend-dataset-text" dx="10" dy="3.333" font-size="12">6am-9am: 17</text></g><g transform="translate(50 260) translate(115 20)"><circle r="5" fill="#7cd6fd" class="legend-dot"/><text fill="#555b51" class="legend-dataset-text" dx="10" dy="3.333" font-size="12">9am-12pm: 35</text></g><g transform="translate(50 260) translate(5 40)"><circle r="5" fill="#5e64ff" class="legend-dot"/><text fill="#555b51" class="legend-dataset-text" dx="10" dy="3.333" font-size="12">12pm-3pm: 84</text></g><g transform="translate(50 260) translate(115 40)"><circle r="5" fill="#743ee2" class="legend-dot"/><text fill="#555b51" class="legend-dataset-text" dx="10" dy="3.333" font-size="12">3pm-6pm: 96</text></g><g transform="translate(50 260) translate(5 60)"><circle r="5" fill="#ff5858" class="legend-dot"/><text fill="#555b51" class="legend-dataset-text" dx="10" dy="3.333" font-size="12">6pm-9pm: 27</text></g><g transform="translate(50 260) translate(115 60)"><circle r="5" fill="#ffa00a" class="legend-dot"/><text fill="#555b51" class="legend-dataset-text" dx="10" dy="3.333" font-size="12">9pm-12am: 47</text></g></g></svg>